<?xml version="1.0" encoding="utf-8"?>
<!-- Generator: Adobe Illustrator 24.2.0, SVG Export Plug-In . SVG Version: 6.00 Build 0)  -->
<svg version="1.1" id="Layer_1" xmlns="http://www.w3.org/2000/svg" xmlns:xlink="http://www.w3.org/1999/xlink" x="0px" y="0px"
	 viewBox="0 0 512 512" style="enable-background:new 0 0 512 512;" xml:space="preserve">
<style type="text/css">
	.st0{fill:#001E36;}
	.st1{fill:#31A8FF;}
</style>
<g id="Layer_2_1_">
	<g id="Surfaces">
		<g id="Photo_Surface">
			<g id="Outline_no_shadow">
				<path class="st0" d="M110.69,36.62h290.62c44.06,0,79.69,35.62,79.69,79.69v279.38c0,44.06-35.62,79.69-79.69,79.69H110.69
					c-44.06,0-79.69-35.62-79.69-79.69V116.31C31,72.25,66.62,36.62,110.69,36.62z"/>
			</g>
		</g>
	</g>
	<g id="Outlined_Mnemonics_Logos">
		<g id="Ps">
			<path class="st1" d="M132.25,344.31V151.38c0-1.31,0.56-2.06,1.88-2.06c3.19,0,6.19,0,10.5-0.19c4.5-0.19,9.19-0.19,14.25-0.38
				c5.06-0.19,10.5-0.19,16.31-0.38c5.81-0.19,11.44-0.19,17.06-0.19c15.38,0,28.12,1.88,38.62,5.81c9.38,3.19,18,8.44,25.12,15.38
				c6,6,10.69,13.31,13.69,21.38c2.81,7.87,4.31,15.94,4.31,24.38c0,16.12-3.75,29.44-11.25,39.94c-7.5,10.5-18,18.38-30.19,22.88
				c-12.75,4.69-26.81,6.37-42.19,6.37c-4.5,0-7.5,0-9.38-0.19s-4.5-0.19-8.06-0.19v60.19c0.19,1.31-0.75,2.44-2.06,2.62
				c-0.19,0-0.38,0-0.75,0H134.5C133,346.75,132.25,346,132.25,344.31z M173.12,185.5v63c2.63,0.19,5.06,0.38,7.31,0.38h9.94
				c7.31,0,14.62-1.12,21.56-3.38c6-1.69,11.25-5.25,15.38-9.94c3.94-4.69,5.81-11.06,5.81-19.31c0.19-5.81-1.31-11.62-4.31-16.69
				c-3.19-4.88-7.69-8.62-13.12-10.69c-6.94-2.81-14.44-3.94-22.12-3.75c-4.88,0-9.19,0-12.75,0.19
				C177.06,185.12,174.44,185.31,173.12,185.5L173.12,185.5z"/>
			<path class="st1" d="M391,237.06c-5.62-3-11.62-5.06-18-6.38c-6.94-1.5-13.88-2.44-21-2.44c-3.75-0.19-7.69,0.37-11.25,1.31
				c-2.44,0.56-4.5,1.88-5.81,3.75c-0.94,1.5-1.5,3.38-1.5,5.06c0,1.69,0.75,3.38,1.88,4.88c1.69,2.06,3.94,3.75,6.38,5.06
				c4.31,2.25,8.81,4.31,13.31,6.19c10.12,3.38,19.88,8.06,28.88,13.69c6.19,3.94,11.25,9.19,14.81,15.56c3,6,4.5,12.56,4.31,19.31
				c0.19,8.81-2.44,17.62-7.31,24.94c-5.25,7.5-12.56,13.31-21,16.69c-9.19,3.94-20.44,6-33.94,6c-8.63,0-17.06-0.75-25.5-2.44
				c-6.56-1.13-13.12-3.19-19.12-6c-1.31-0.75-2.25-2.06-2.06-3.56v-32.62c0-0.56,0.19-1.31,0.75-1.69
				c0.56-0.38,1.12-0.19,1.69,0.19c7.31,4.31,15,7.31,23.25,9.19c7.12,1.88,14.62,2.81,22.12,2.81c7.13,0,12.19-0.94,15.56-2.62
				c3-1.31,5.06-4.5,5.06-7.88c0-2.62-1.5-5.06-4.5-7.5c-3-2.44-9.19-5.25-18.38-8.81c-9.56-3.38-18.38-7.88-26.62-13.5
				c-5.81-4.12-10.69-9.56-14.25-15.94c-3-6-4.5-12.56-4.31-19.12c0-8.06,2.25-15.75,6.38-22.69c4.69-7.5,11.62-13.5,19.69-17.25
				c8.81-4.5,19.88-6.56,33.19-6.56c7.69,0,15.56,0.56,23.25,1.69c5.62,0.75,11.06,2.25,16.13,4.31c0.75,0.19,1.5,0.94,1.88,1.69
				c0.19,0.75,0.37,1.5,0.37,2.25v30.56c0,0.75-0.37,1.5-0.94,1.88C392.69,237.44,391.75,237.44,391,237.06z"/>
		</g>
	</g>
</g>
</svg>
